<svg width="208" height="264" viewBox="0 0 208 264" fill="none" xmlns="http://www.w3.org/2000/svg">
<path fill-rule="evenodd" clip-rule="evenodd" d="M32.441 0.091823C23.3995 0.844065 15.1965 5.58559 9.86414 13.1419C6.70806 17.6144 4.78733 23.0303 4.33461 28.7342C4.2708 29.5384 4.23857 40.9015 4.23857 62.6181V95.2921L4.00378 96.2987C0.00496122 113.442 -1.03607 132.571 1.05026 150.568C1.67349 155.944 2.479 160.775 3.64192 166.113L4.23857 168.851V201.446C4.23857 223.107 4.2708 234.446 4.33461 235.25C5.07584 244.588 9.69308 252.844 17.2236 258.297C21.639 261.494 26.9856 263.44 32.6165 263.898C34.2832 264.034 173.602 264.034 175.269 263.898C184.488 263.147 192.638 258.47 198.021 250.842C201.177 246.37 203.098 240.954 203.551 235.25C203.615 234.446 203.647 223.097 203.647 201.413V168.786L203.882 167.779C205.287 161.756 206.465 154.52 207.113 147.941C207.501 144 207.815 138.985 207.815 136.722C207.815 136.116 207.855 135.637 207.907 135.604C207.967 135.567 208 134.241 208 131.934C208 129.947 207.965 128.344 207.922 128.371C207.879 128.398 207.817 127.44 207.784 126.242C207.541 117.355 206.287 107.345 204.244 97.9649L203.647 95.2265V62.5853C203.647 40.8914 203.615 29.5384 203.551 28.7342C202.81 19.396 198.192 11.1398 190.662 5.68701C186.247 2.49003 180.9 0.544406 175.269 0.0858186C173.817 -0.0324873 33.8638 -0.0265767 32.441 0.091823ZM100.747 6.7997C100.416 6.81828 99.4577 6.87795 98.6172 6.93217C68.5863 8.87104 40.7797 27.9489 23.0674 58.7662C7.51728 85.8217 1.268 119.34 5.5796 152.562C8.19386 172.706 14.8225 191.876 24.8737 208.361C34.3094 223.836 46.8131 236.582 60.875 245.061C72.6779 252.178 85.0638 256.154 98.5708 257.161C101.904 257.409 108.153 257.31 111.769 256.95C139.86 254.16 165.432 236.79 182.798 208.705C199.762 181.268 206.805 146.181 202.306 111.516C199.691 91.3703 193.073 72.2284 183.012 55.7171C171.655 37.0765 155.85 22.4663 138.304 14.3881C129.226 10.2083 119.919 7.77035 110.005 6.97542C108.324 6.84061 102.116 6.72277 100.747 6.7997ZM55.0863 72.8561C49.1492 73.1969 44.1226 74.9402 39.0169 78.4293C37.181 79.684 35.9325 80.7394 34.1486 82.5448C32.0051 84.7141 30.768 86.2965 29.3595 88.6699C27.0755 92.5187 25.5317 97.4343 24.829 103.096C24.6005 104.936 24.6017 109.684 24.8309 111.493C25.5147 116.886 27.0847 121.363 29.6673 125.284C30.6876 126.833 31.4565 127.773 32.8968 129.231C34.7104 131.066 36.2802 132.238 39.2022 133.936C40.7128 134.814 44.4677 136.804 46.3338 137.714C56.8189 142.832 60.8642 144.983 64.0703 147.144C68.9099 150.408 70.5734 153.045 71.3476 158.684C71.5301 160.013 71.554 162.775 71.3939 164.031C70.8454 168.33 69.0892 172.1 66.3152 174.932C61.139 180.216 53.452 181.57 45.7318 178.557C41.7539 177.004 38.4681 174.201 34.7555 169.191C32.9102 166.702 31.8012 164.865 30.3641 161.92C28.6432 158.394 27.3548 154.758 25.7279 148.837C24.7005 145.098 24.0772 143.362 23.6082 142.933C23.4986 142.833 23.2648 142.751 23.0679 142.745C22.5015 142.727 22.4535 143.001 22.5192 145.877C22.5805 148.56 22.695 150.668 23.8764 170.88C24.3347 178.723 24.7672 186.14 24.8373 187.361C24.9073 188.582 24.9926 189.627 25.0267 189.683C25.2243 190.007 26.0163 189.574 27.0633 188.571C27.8366 187.829 28.4552 187.48 29.3261 187.293C31.05 186.923 33.101 187.246 37.4851 188.578C42.3495 190.057 45.4362 190.71 49.4829 191.115C51.0802 191.275 56.6165 191.275 58.6521 191.115C64.2647 190.672 67.1665 189.92 71.5261 187.776C73.6758 186.719 74.8875 186.02 76.7591 184.761C78.8784 183.334 80.4925 181.989 82.3689 180.084C85.4666 176.94 87.6136 173.878 89.7244 169.595C92.1477 164.678 93.3824 160.035 93.8091 154.236C93.9551 152.253 93.8692 146.725 93.6656 144.986C92.9561 138.93 91.3419 134.152 88.5475 129.837C86.1232 126.094 83.474 123.347 79.9631 120.938C77.0869 118.964 74.9139 117.777 65.3207 112.944C56.2506 108.375 54.1308 107.217 51.8959 105.614C50.8692 104.877 49.4356 103.504 48.9747 102.816C47.0395 99.9265 46.5095 96.013 47.597 92.6422C48.1743 90.8524 49.3537 88.9346 50.7516 87.512C54.6295 83.5657 61.6824 82.8202 67.5435 85.7371C72.9706 88.438 77.4654 93.9899 80.4964 101.736C81.7256 104.878 82.5685 107.594 83.0629 110.007C83.3577 111.445 83.5637 112.056 83.8294 112.278C84.0757 112.484 84.7758 112.527 85.0396 112.351C85.4619 112.071 85.4969 111.558 85.434 106.567C85.3489 99.8039 84.6617 76.2449 84.4853 74.0373L84.4311 73.3592L84.0452 73.5567C83.8329 73.6652 83.2789 73.983 82.8141 74.2628C81.7401 74.9093 81.2404 75.0993 80.2432 75.2406C78.8644 75.436 76.7905 75.1963 71.1557 74.1902C66.8574 73.4228 64.2629 73.0897 61.0139 72.8879C59.6218 72.8014 56.3443 72.7839 55.0863 72.8561ZM99.0494 74.3558C98.9541 74.4523 98.9774 77.4602 99.0783 78.0842C99.1992 78.832 99.3923 79.0166 100.316 79.2671C102.021 79.7291 103.155 80.6396 103.938 82.1737C104.777 83.8209 104.937 84.548 105.103 87.4748C105.275 90.4955 105.37 110.811 105.374 145.253L105.378 179.013L104.946 179.825C104.364 180.918 103.817 181.767 103.356 182.291C102.754 182.976 101.646 183.783 100.537 184.343C99.975 184.627 99.4383 184.965 99.344 185.094C99.1079 185.417 98.9939 186.438 98.9905 188.26L98.9876 189.785H117.419H135.85V188.147C135.85 187.247 135.804 186.291 135.747 186.023C135.592 185.293 135.172 184.9 133.389 183.824C132.537 183.31 131.662 182.714 131.443 182.5C130.442 181.518 130.057 179.981 129.829 176.04C129.719 174.15 129.579 158.57 129.536 143.54L129.506 132.807L131.636 131.933C133.89 131.008 136.154 130.209 136.522 130.209C136.699 130.209 136.819 130.344 137.126 130.89C137.86 132.192 139.689 136.237 141.592 140.764C147.396 154.574 151.146 167.05 152.392 176.697C152.591 178.242 152.617 180.905 152.44 181.622C152.121 182.912 151.527 183.713 150.359 184.428C149.043 185.233 149.012 185.309 148.936 187.869L148.88 189.785H167.146H185.412L185.353 188.635C185.245 186.554 185.131 185.547 184.962 185.197C184.795 184.852 184.728 184.809 183.331 184.151C181.85 183.455 180.638 181.828 179.58 179.117C178.582 176.561 177.914 174.082 176.561 167.913C175.285 162.092 174.101 157.781 172.161 151.882C168.702 141.363 164.732 132.17 159.886 123.454C158.197 120.415 157.615 119.271 157.615 118.986C157.615 118.485 158.416 117.609 160.456 115.877C163.384 113.391 167.382 108.895 169.5 105.707C170.793 103.761 171.95 101.229 172.945 98.1702C173.617 96.1037 173.68 95.557 173.679 91.7905C173.677 88.1158 173.608 87.4582 173.029 85.6637C170.891 79.0384 166.393 75.1565 160.397 74.7627C157.961 74.6027 151.16 74.4779 139.925 74.3869C127.216 74.2841 99.1413 74.2627 99.0494 74.3558ZM135.759 84.6251C134.178 84.8106 133.097 85.3353 132.006 86.4472C130.676 87.8029 129.987 89.2621 129.827 91.0618C129.639 93.1777 129.547 98.1809 129.489 109.358C129.437 119.607 129.446 120.921 129.569 120.921C130.34 120.921 135.197 118.201 137.477 116.493C141.09 113.785 144.06 110.28 146.007 106.426C147.053 104.355 147.631 102.815 148.163 100.675C149.204 96.492 149.132 93.9632 147.882 90.7852C146.858 88.1806 145.944 86.9847 144.134 85.8808C142.506 84.8878 138.562 84.2964 135.759 84.6251ZM0.0202431 132.039C0.0202431 134.051 0.0324688 134.861 0.047473 133.839C0.0624773 132.816 0.0623847 131.17 0.0473804 130.18C0.0324688 129.19 0.0201505 130.026 0.0202431 132.039Z" fill="#007CDD"/>
</svg>
